<svg id="Layer_1" data-name="Layer 1" xmlns="http://www.w3.org/2000/svg" viewBox="0 0 500 500"><defs><style>.cls-1{fill:#bdd7d6;}.cls-2{fill:#082947;}.cls-3{fill:none;}.cls-4{fill:#009bde;stroke:#082947;stroke-miterlimit:10;stroke-width:5.91px;}</style></defs><title>10</title><rect class="cls-1" x="31.93" y="84.94" width="431.76" height="295.72"/><path class="cls-2" d="M460.94,69.16l-0.73,0H39.85c-13.62.94-23.79,11.76-25.41,24.93V370.84a27.15,27.15,0,0,0,3.71,13.83c5.32,9.36,13.16,14.1,24,14.1h152v38.33H165.28a12.72,12.72,0,0,0,0,25.43H335.51a12.72,12.72,0,1,0,0-25.43H306.64V398.77h152c10.88,0,18.79-4.74,24-14.1a27.93,27.93,0,0,0,3.92-13.83V94.09c-1.61-13.16-12.46-24-25.62-24.93h0Zm0,27.24V370.84c0,1.61-.7,2.31-2.33,2.31H42.16c-1.61,0-2.31-.7-2.31-2.31V94.09H460.94V96.4Zm0,0"/><rect class="cls-3" x="14.44" y="69.31" width="473.06" height="393.38"/><path class="cls-4" d="M390.42,175.59a32,32,0,0,0-29.92,43.8l-43.91,38.33a31.38,31.38,0,0,0-35.88,3l-73.12-46a32.18,32.18,0,1,0-58.79,9.7l-26.15,31.26a31.8,31.8,0,0,0-11.52-2.21,32.56,32.56,0,1,0,27.79,16.24L165.45,238a31.09,31.09,0,0,0,30.67-5.11l73.26,46.09a32.53,32.53,0,0,0-.71,6.67,32.17,32.17,0,1,0,62.06-11.75l43.85-38.26a32.11,32.11,0,1,0,15.84-60h0Zm0,0"/></svg>