<svg id="Layer_1" data-name="Layer 1" xmlns="http://www.w3.org/2000/svg" viewBox="0 0 500 500"><defs><style>.cls-1{fill:#082947;}.cls-2{fill:#ff5f00;}</style></defs><title>14</title><path class="cls-1" d="M422.35,223.45a96.72,96.72,0,0,0-90.43-62.58,95,95,0,0,0-27.4,4,133.65,133.65,0,0,0-247.3,67.37,89.1,89.1,0,0,0,44.54,166.29h297a89.12,89.12,0,0,0,23.56-175.07h0ZM101.75,375.92A66.5,66.5,0,0,1,68.53,251.79l11-6.37,0.27-12.71a111.05,111.05,0,0,1,205.5-56l9.13,14.74,16.6-5a72.32,72.32,0,0,1,20.88-3,74.43,74.43,0,0,1,69.29,48l4.07,10.79,11.13,3a66.52,66.52,0,0,1-17.61,130.67h-297Z"/><path class="cls-2" d="M386.12,252.75l-38.95-39,0,26.79a88.39,88.39,0,0,0-94.27,52.61,88.27,88.27,0,0,0-94.14-52.84l0-26.79-39,38.86,38.95,39.14,0-36.44a74.16,74.16,0,0,1,65.05,20.51,73.21,73.21,0,0,1,21.52,52l-0.5,27.16a77.6,77.6,0,0,1,15.88.23l-0.38-27.18h0.08A73.22,73.22,0,0,1,282,275.7a74.16,74.16,0,0,1,65.1-20.35l0,36.44Z"/></svg>