<svg id="Layer_1" data-name="Layer 1" xmlns="http://www.w3.org/2000/svg" viewBox="0 0 500 500"><defs><style>.cls-1{fill:none;stroke:#082947;stroke-miterlimit:10;stroke-width:26.47px;}.cls-2{fill:#ababab;}.cls-3{fill:#ff5f00;}</style></defs><title>17</title><path class="cls-1" d="M43.57,131.64A12.42,12.42,0,0,0,31.13,144V454.81L91.24,394.7H356.91a12.46,12.46,0,0,0,12.44-12.45V144a12.42,12.42,0,0,0-12.44-12.4H43.57Zm0,0"/><path class="cls-2" d="M467.87,28.19H133.57a14,14,0,0,0-14,14v75.92a0.24,0.24,0,0,0,.24.24H356.9a25.68,25.68,0,0,1,25.68,25.68v169.7h32.09a13.24,13.24,0,0,1,9.37,3.88l56.23,56.27V40.63a12.42,12.42,0,0,0-12.4-12.44h0Zm0,0"/><path class="cls-3" d="M196.5,214.28H106.29a7.5,7.5,0,1,1,0-15H196.5a7.5,7.5,0,0,1,0,15h0Zm0,0"/><path class="cls-3" d="M294.19,266.91H106.29a7.53,7.53,0,1,1,0-15.05h187.9a7.53,7.53,0,1,1,0,15.05h0Zm0,0"/><path class="cls-3" d="M294.19,319.54H106.29a7.53,7.53,0,1,1,0-15.05h187.9a7.53,7.53,0,1,1,0,15.05h0Zm0,0"/></svg>