<svg id="Layer_2" data-name="Layer 2" xmlns="http://www.w3.org/2000/svg" viewBox="0 0 500 500"><defs><style>.cls-1{fill:#082947;}.cls-2{fill:#9bbdaa;}.cls-3{fill:#ff5f00;}.cls-4{fill:#00a887;}.cls-5{fill:#3d6889;}</style></defs><title>2</title><path class="cls-1" d="M355.93,406.21H258.18V368.61a4.25,4.25,0,0,0-4.25-4.27h-11a4.56,4.56,0,0,0-4.6,4.27v37.61h-97a5.62,5.62,0,0,0-5.47,5.28v11c0,2.79,2.68,4.7,5.47,4.7h214.6a4.51,4.51,0,0,0,4.74-4.7v-11C360.67,408.71,358.72,406.21,355.93,406.21Z"/><rect class="cls-2" x="32.27" y="85.53" width="443.56" height="265.58"/><rect class="cls-3" x="223.01" y="152.22" width="32.35" height="124.1"/><path class="cls-1" d="M261.31,300.14H77.56a6,6,0,1,0,0,12H261.31a6,6,0,0,0,0-12h0Zm0,0"/><path class="cls-1" d="M191.56,232H147.24a6,6,0,0,0-6,6V282.3a6,6,0,0,0,6,6h44.31a6,6,0,0,0,6-6V238a6,6,0,0,0-6-6h0Zm-6,44.31H153.22V244h32.35v32.35Zm0,0"/><path class="cls-1" d="M77.56,288.27h44.31a6,6,0,0,0,6-6V203.4a6,6,0,0,0-6-6H77.56a6,6,0,0,0-6,6V282.3a6,6,0,0,0,6,6h0Zm6-78.89H115.9v66.94H83.54V209.38Zm0,0"/><path class="cls-1" d="M217,288.27h44.31a6,6,0,0,0,6-6V146.24a6,6,0,0,0-6-6H217a6,6,0,0,0-6,6V282.3a6,6,0,0,0,6,6h0Zm6-136.06h32.35v124.1H223V152.22Zm0,0"/><path class="cls-4" d="M471.88,394.13c-0.51,0-1,0-1.53-.08a14.73,14.73,0,0,1-9.73-5l-0.27-.32-54.68-67.33,3.26-2.08a97,97,0,0,0,9-6.55,94.52,94.52,0,0,0,8.15-7.51l2.66-2.75,54.64,67.64,0.05,0.08,0.09,0.12a14.92,14.92,0,0,1-2.37,20.49A14.55,14.55,0,0,1,471.88,394.13Z"/><path class="cls-1" d="M428.48,309.12l51.39,63.62,0,0,0.18,0.23a10.48,10.48,0,0,1-1.67,14.4,10.19,10.19,0,0,1-6.52,2.33c-0.36,0-.73,0-1.09-0.06a10.34,10.34,0,0,1-6.83-3.53l0,0,0,0-0.17-.2L412.2,322.42a101.48,101.48,0,0,0,8.57-6.28,98.86,98.86,0,0,0,7.71-7m0.59-13.3L423,302.17a90.21,90.21,0,0,1-7.76,7.16,92.62,92.62,0,0,1-8.64,6.25l-7.42,4.75L457,391.54l0.32,0.37a19.11,19.11,0,0,0,12.62,6.54h0q1,0.1,2,.1A19,19,0,0,0,484,394.22a19.33,19.33,0,0,0,3.07-26.59l-0.08-.12-57.9-71.68h0Z"/><path class="cls-1" d="M402.83,331.79H42.11V92.95H455.53V321.27l19.62,24a10.77,10.77,0,0,0,1-4.63v-257a10.84,10.84,0,0,0-10.84-10.84H32.28A10.84,10.84,0,0,0,21.44,83.68v257a10.84,10.84,0,0,0,10.84,10.84H419Z"/><path class="cls-1" d="M410.63,303.75a82.42,82.42,0,1,0-60.4,18.2,82.52,82.52,0,0,0,60.4-18.2h0ZM288.06,232.88a70.75,70.75,0,1,1,15.62,51.85,70.29,70.29,0,0,1-15.62-51.85h0Zm0,0"/><path class="cls-4" d="M403.24,294.71a70.75,70.75,0,1,0-51.85,15.62,70.83,70.83,0,0,0,51.85-15.62h0ZM303,234.38a55.72,55.72,0,1,1,12.3,40.83A55.36,55.36,0,0,1,303,234.38h0Zm0,0"/><path class="cls-5" d="M380.25,219.55A7.51,7.51,0,1,0,391.88,210a42.81,42.81,0,0,0-60.24-6,7.51,7.51,0,1,0,9.51,11.63,27.79,27.79,0,0,1,39.1,3.92h0Zm0,0"/></svg>