<?xml version="1.0" encoding="utf-8"?>
<!-- Generator: Adobe Illustrator 19.2.1, SVG Export Plug-In . SVG Version: 6.00 Build 0)  -->
<svg version="1.1" id="Layer_1" xmlns="http://www.w3.org/2000/svg" xmlns:xlink="http://www.w3.org/1999/xlink" x="0px" y="0px"
	 viewBox="0 0 425 425" style="enable-background:new 0 0 425 425;" xml:space="preserve">
<style type="text/css">
	.st0{fill-rule:evenodd;clip-rule:evenodd;fill:#9BE7D8;stroke:#082947;stroke-width:12.317;stroke-miterlimit:10;}
	.st1{fill:#276092;}
	.st2{fill:#FFFFFF;}
	.st3{fill:#34D9C3;}
	.st4{fill-rule:evenodd;clip-rule:evenodd;}
	.st5{fill:#0098CE;}
	.st6{fill:#082947;}
</style>
<g>
	<path class="st0" d="M368.4,161c-0.5-4.5-5.7-7.8-10.2-7.8c-14.5,0-27.4-8.5-32.8-21.7c-5.5-13.5-2-29.3,8.9-39.2
		c3.4-3.1,3.8-8.3,1-12c-7.4-9.4-15.9-18-25.1-25.4c-3.6-2.9-8.9-2.5-12.1,1c-9.5,10.5-26.4,14.4-39.6,8.9
		C244.8,59,236.2,45.2,237,30.3c0.3-4.7-3.1-8.7-7.8-9.3c-11.9-1.4-23.8-1.4-35.7-0.1c-4.6,0.5-8,4.5-7.8,9.1
		c0.5,14.7-8.2,28.3-21.7,33.8c-13,5.3-29.8,1.4-39.3-8.9c-3.1-3.4-8.3-3.8-12-1c-9.5,7.5-18.2,16-25.7,25.4
		c-2.9,3.6-2.5,8.9,0.9,12.1c11,10,14.6,25.9,8.9,39.6c-5.5,13-19,21.4-34.5,21.4c-5-0.2-8.6,3.2-9.2,7.8
		c-1.4,11.9-1.4,24.1-0.1,36.1c0.5,4.5,5.9,7.8,10.4,7.8c13.8-0.4,27.1,8.2,32.6,21.7c5.5,13.5,2,29.3-8.9,39.2
		c-3.4,3.1-3.8,8.3-1,11.9c7.4,9.4,15.8,17.9,25.1,25.4c3.6,2.9,8.9,2.5,12.1-1c9.5-10.5,26.5-14.4,39.5-8.9
		c13.7,5.7,22.3,19.6,21.5,34.4c-0.3,4.7,3.1,8.7,7.8,9.3c6.1,0.7,12.2,1.1,18.3,1.1c5.8,0,11.6-0.3,17.4-1c4.6-0.5,8-4.5,7.8-9.1
		c-0.5-14.7,8.2-28.3,21.7-33.8c13.1-5.3,29.8-1.4,39.3,8.9c3.1,3.4,8.3,3.8,12,1c9.5-7.4,18.1-16,25.7-25.4
		c2.9-3.6,2.5-8.9-0.9-12.1c-11-10-14.6-25.9-8.9-39.6c5.4-12.9,18.4-21.5,32.4-21.5l2,0.1c4.6,0.4,8.7-3.1,9.3-7.8
		C369.7,185.2,369.8,173,368.4,161L368.4,161z"/>
	<path class="st1" d="M163.2,153.5c-16.1,2.6-29.7,6.5-39.8,10.9c-3.6,1.6-6.9,6.2-7.2,10.1c-0.2,2.6-0.3,5.2-0.3,7.8
		c0,2.6,0.1,5.2,0.3,7.8c0.3,3.9,3.6,8.6,7.2,10.1c10.1,4.4,23.7,8.3,39.8,10.9c3.9,0.6,6.7-2.1,6.4-6c-0.5-7.6-0.8-15.2-0.8-22.8
		c0-7.6,0.3-15.2,0.8-22.8C169.9,155.6,167,152.9,163.2,153.5L163.2,153.5z"/>
	<path class="st1" d="M177.3,272c3.6,1.4,5.4-0.6,4.1-4.3c-3.9-10.9-6.9-23.9-9-37.7c-0.6-3.9-4.1-7.4-8-8
		c-13.9-2.1-26.8-5.1-37.7-9c-3.7-1.3-5.7,0.5-4.3,4.1C132.1,242.3,152.1,262.3,177.3,272L177.3,272z"/>
	<path class="st1" d="M194.2,93.6c-4.4,10.1-8.3,23.7-10.9,39.8c-0.6,3.9,2.1,6.7,6,6.4c7.6-0.5,15.2-0.8,22.8-0.8
		c7.6,0,15.2,0.3,22.8,0.8c3.9,0.3,6.6-2.6,6-6.4c-2.6-16.1-6.5-29.7-10.9-39.8c-1.6-3.6-6.2-6.9-10.1-7.2c-2.6-0.2-5.2-0.3-7.8-0.3
		c-2.6,0-5.2,0.1-7.8,0.3C200.4,86.8,195.7,90.1,194.2,93.6L194.2,93.6z"/>
	<path class="st1" d="M177.3,92.7c-25.1,9.8-45.1,29.8-54.9,54.9c-1.4,3.6,0.6,5.4,4.3,4.1c10.9-3.9,23.9-6.9,37.7-9
		c3.9-0.6,7.4-4.1,8-8c2.1-13.9,5.1-26.8,9-37.7C182.7,93.3,180.9,91.2,177.3,92.7L177.3,92.7z"/>
	<path class="st1" d="M251.8,134.6c0.6,3.9,4.1,7.4,8,8c13.9,2.1,26.8,5.1,37.7,9c3.7,1.3,5.7-0.5,4.3-4.1
		c-9.8-25.1-29.8-45.1-54.9-54.9c-3.6-1.4-5.4,0.6-4.1,4.3C246.7,107.9,249.7,120.8,251.8,134.6L251.8,134.6z"/>
	<path class="st1" d="M307.9,174.6c-0.3-3.9-3.6-8.6-7.2-10.1c-10.1-4.4-23.7-8.3-39.8-10.9c-3.9-0.6-6.7,2.1-6.4,6
		c0.5,7.6,0.8,15.2,0.8,22.8c0,7.6-0.3,15.2-0.8,22.8c-0.3,3.9,2.6,6.6,6.4,6c16.1-2.6,29.7-6.5,39.8-10.9c3.6-1.6,6.9-6.2,7.2-10.1
		c0.2-2.6,0.3-5.2,0.3-7.8C308.2,179.7,308.1,177.1,307.9,174.6L307.9,174.6z"/>
	<path class="st1" d="M244.7,182.3c0-8.3-0.3-16.4-0.9-24.1c-0.3-3.9-3.8-7.4-7.6-7.7c-7.7-0.6-15.7-0.9-24.1-0.9
		c-8.3,0-16.4,0.3-24.1,0.9c-3.9,0.3-7.4,3.8-7.7,7.7c-0.6,7.7-0.9,15.7-0.9,24.1c0,8.3,0.3,16.4,0.9,24.1c0.3,3.9,3.8,7.4,7.7,7.6
		c7.7,0.6,15.7,0.9,24.1,0.9c8.3,0,16.4-0.3,24.1-0.9c3.9-0.3,7.4-3.8,7.6-7.6C244.3,198.7,244.7,190.7,244.7,182.3L244.7,182.3z"/>
	<path class="st1" d="M297.5,213c-10.9,3.9-23.9,6.9-37.7,9c-3.9,0.6-7.4,4.1-8,8c-2.1,13.9-5.1,26.8-9,37.7
		c-1.3,3.7,0.5,5.7,4.1,4.3c25.1-9.8,45.1-29.8,54.9-54.9C303.2,213.5,301.1,211.7,297.5,213L297.5,213z"/>
	<path class="st1" d="M234.8,224.8c-7.6,0.5-15.2,0.8-22.8,0.8c-7.6,0-15.2-0.3-22.8-0.8c-3.9-0.3-6.6,2.6-6,6.4
		c2.7,16.1,6.5,29.7,10.9,39.8c1.6,3.6,6.2,6.9,10.1,7.2c2.6,0.2,5.2,0.3,7.8,0.3c2.6,0,5.2-0.1,7.8-0.3c3.9-0.3,8.6-3.6,10.1-7.2
		c4.4-10.1,8.3-23.7,10.9-39.8C241.5,227.3,238.7,224.5,234.8,224.8L234.8,224.8z"/>
</g>
<g>
	<path class="st5" d="M296.1,283.2H125.5c-23.7,0-43,19.2-43,43v0c0,23.7,19.2,43,43,43h73.8l-6.5-13.4c-1-2.1-0.6-4.6,1.1-6.3
		l0.1-0.1c1-1,2.4-1.5,3.8-1.5c0.9,0,1.7,0.2,2.5,0.6l41.4,20.7h54.5c23.7,0,43-19.2,43-43v0C339.1,302.5,319.8,283.2,296.1,283.2z"
		/>
	<g>
		<path class="st2" d="M159.8,324.7h-0.2l-3.8,19.7h-14.9l-7.7-37h10.5l5.7,29.2h0.2l5.1-29.2h10.4l5.3,29.4h0.2l5.5-29.4h9.4
			l-7.7,37h-14.4L159.8,324.7z"/>
		<path class="st2" d="M215.2,324.7H215l-3.8,19.7h-14.9l-7.7-37h10.5l5.7,29.2h0.2l5.1-29.2h10.4l5.3,29.4h0.2l5.5-29.4h9.4
			l-7.7,37H219L215.2,324.7z"/>
		<path class="st2" d="M270.6,324.7h-0.2l-3.8,19.7h-14.9l-7.7-37h10.5l5.7,29.2h0.2l5.1-29.2H276l5.3,29.4h0.2l5.5-29.4h9.4
			l-7.7,37h-14.4L270.6,324.7z"/>
	</g>
	<path class="st6" d="M256.5,400.7l-13.2-13l12-3.8c0.8-0.3,1.4-1,1.5-1.9c0.1-0.9-0.4-1.7-1.2-2.1l-56.9-28.4
		c-0.8-0.4-1.8-0.3-2.5,0.4c-0.6,0.6-0.8,1.6-0.4,2.5l27.5,56.9c0.4,0.7,1.1,1.2,2,1.2h0.2c0.9-0.1,1.6-0.6,1.9-1.5l4.4-13.1
		l13.9,13.9c0.8,0.8,2.2,0.8,3.1,0l7.9-7.9C257.4,403,257.4,401.6,256.5,400.7z"/>
</g>
</svg>
