<svg id="Layer_1" data-name="Layer 1" xmlns="http://www.w3.org/2000/svg" viewBox="0 0 500 500"><defs><style>.cls-1{fill:#c82127;}.cls-1,.cls-2{fill-rule:evenodd;}.cls-2{fill:#a5a4a4;stroke:#082947;stroke-miterlimit:10;stroke-width:8.94px;}.cls-3{fill:#009bde;}.cls-4{fill:#082947;}</style></defs><title>9</title><path class="cls-1" d="M365,165H321.07a44.09,44.09,0,0,0-43.94,43.94v58.8H365V165Zm-14.14,14.59V253H292.18V211c0-17.27,13.15-31.41,29.34-31.41h29.35Zm0,0"/><path class="cls-2" d="M379.78,165h43.94a44,44,0,0,1,43.85,43.94v58.8H379.78V165h0Zm0,0"/><path class="cls-2" d="M276.95,281H465.87v99.05c0,52-42.52,94.5-94.5,94.5s-94.43-42.52-94.43-94.5V281Zm0,0"/><path class="cls-3" d="M200.28,221.58V56.39a2,2,0,0,1,2-2H367.42a2,2,0,0,1,2,2v97.8h29V56.39a31,31,0,0,0-31-31H202.23a31,31,0,0,0-31,31V221.58a31,31,0,0,0,31,31h56v-29h-56A2,2,0,0,1,200.28,221.58Z"/><path class="cls-4" d="M228.61,186.94a2,2,0,0,1,2,2V354.09a2,2,0,0,1-2,2H63.42a2,2,0,0,1-2-2V188.9a2,2,0,0,1,2-2H228.61m0-29H63.42a31,31,0,0,0-31,31V354.09a31,31,0,0,0,31,31H228.61a31,31,0,0,0,31-31V188.9a31,31,0,0,0-31-31h0Z"/></svg>