<svg id="Layer_1" data-name="Layer 1" xmlns="http://www.w3.org/2000/svg" viewBox="0 0 500 500">
  <defs>
    <style>
      .cls-1 {
        fill: #ebebeb;
      }

      .cls-2 {
        fill: #00aeef;
      }
    </style>
  </defs>
  <title>a</title>
  <rect class="cls-1" x="-22" y="-16" width="539" height="527"/>
  <g>
    <path class="cls-2" d="M249.8,134a106.32,106.32,0,0,0-106.2,106.2,104.85,104.85,0,0,0,22.71,65.48c2.93,3.73,6,7.31,9.28,11.09l0.17,0.21c10,11.58,20.3,23.55,24.16,37.66,0.87,3.23,1,9.43.95,14.2v8.11a13.44,13.44,0,0,0,13.44,13.44h70.4a13.45,13.45,0,0,0,13.44-13.44v-8.21c0-6.23.27-10.78,0.93-13.14,3.88-14,15.31-27.46,25.49-39.44l0.45-.52c2.93-3.46,5.71-6.71,8.24-9.92A104.87,104.87,0,0,0,356,240.17,106.32,106.32,0,0,0,249.8,134h0ZM312.12,289c-2.21,2.82-4.82,5.89-7.59,9.14l-0.54.63c-11.88,14-25.36,29.85-30.83,49.59-0.77,2.81-1.63,7-1.85,15.06H227.73c-0.18-8.56-1.06-13-1.86-15.91-5.47-20-18.92-35.62-29.74-48.17l-0.18-.21c-3.06-3.55-5.94-6.9-8.51-10.15a78.29,78.29,0,0,1-17-48.85,79.31,79.31,0,1,1,158.62,0,78.19,78.19,0,0,1-17,48.88h0Zm0,0"/>
    <path class="cls-2" d="M284.7,394.18H214.31a13.44,13.44,0,1,0,0,26.89h70.4a13.44,13.44,0,1,0,0-26.89h0Zm0,0"/>
    <path class="cls-2" d="M267.11,424.84H231.9a13.44,13.44,0,0,0,0,26.89h35.2a13.44,13.44,0,0,0,0-26.89h0Zm0,0"/>
    <path class="cls-2" d="M435.3,226.72H388.92a13.44,13.44,0,0,0,0,26.89H435.3a13.44,13.44,0,1,0,0-26.89h0Zm0,0"/>
    <path class="cls-2" d="M124.11,240.17a13.44,13.44,0,0,0-13.44-13.44H64.28a13.44,13.44,0,1,0,0,26.89h46.38a13.44,13.44,0,0,0,13.44-13.44h0Zm0,0"/>
    <path class="cls-2" d="M249.79,114.49A13.44,13.44,0,0,0,263.24,101V54.66a13.44,13.44,0,1,0-26.89,0V101a13.44,13.44,0,0,0,13.44,13.44h0Zm0,0"/>
    <path class="cls-2" d="M357.68,329a13.44,13.44,0,1,0-19,19l32.8,32.81a13.45,13.45,0,0,0,19-19Zm0,0"/>
    <path class="cls-2" d="M141.9,151.29a13.44,13.44,0,1,0,19-19l-32.78-32.8a13.44,13.44,0,1,0-19,19Zm0,0"/>
    <path class="cls-2" d="M141.91,329l-32.8,32.8a13.44,13.44,0,0,0,19,19L160.93,348a13.44,13.44,0,1,0-19-19h0Zm0,0"/>
    <path class="cls-2" d="M348.17,155.22a13.4,13.4,0,0,0,9.5-3.94l32.8-32.79a13.45,13.45,0,0,0-19-19l-32.79,32.79a13.44,13.44,0,0,0,9.5,22.95h0Zm0,0"/>
  </g>
</svg>
