<svg id="Layer_1" data-name="Layer 1" xmlns="http://www.w3.org/2000/svg" viewBox="0 0 936 510"><defs><style>.cls-1{fill:#2aace3;}.cls-2{opacity:0.5;}.cls-3{fill:#fff;}.cls-4{font-size:72px;fill:#231f20;font-family:Oriya Sangam MN;}</style></defs><title>quote2</title><rect class="cls-1" x="518" y="250" width="418" height="260"/><path class="cls-3" d="M135,96V83H105V17h66V96c0,25-7,44-21,55s-22,12-37,12V128c8,0,23,0,23-32h0ZM26,128v35c15,0,27-4,37-12s21-30,21-55V17H18V83H49V96c0,32-15,32-23,32h0Zm0,0" transform="translate(582 269)"/><text class="cls-4" transform="translate(0 60)">“gdgdf”</text></svg>