<svg id="Layer_3" data-name="Layer 3" xmlns="http://www.w3.org/2000/svg" viewBox="0 0 243.09 244.09">
  <defs>
    <style>
      .cls-1 {
        fill: #2ebbf0;
      }

      .cls-2 {
        fill: #1a1a1a;
      }

      .cls-3 {
        font-size: 20px;
      }

      .cls-3, .cls-4 {
        fill: #fff;
        font-family: Bebas Neue;
      }

      .cls-4 {
        font-size: 21.72px;
      }
    </style>
  </defs>
  <title>seal</title>
  <g>
    <path class="cls-1" d="M121.67,230.1c-6.29,0-11.74-2.86-17-5.62a47.23,47.23,0,0,0-9.18-4.05,49.66,49.66,0,0,0-10.38-1.16c-5.86-.26-11.92-0.53-17.15-3.55s-8.58-8.22-11.74-13.21a48.49,48.49,0,0,0-6.08-8.3,48.5,48.5,0,0,0-8.3-6.08c-5-3.16-10.14-6.43-13.21-11.74s-3.29-11.29-3.55-17.15a49.65,49.65,0,0,0-1.16-10.38,47.23,47.23,0,0,0-4.05-9.18c-2.76-5.27-5.62-10.73-5.62-17s2.86-11.74,5.62-17a47.23,47.23,0,0,0,4.05-9.18,49.65,49.65,0,0,0,1.16-10.38c0.26-5.86.53-11.92,3.55-17.15s8.22-8.58,13.21-11.74a48.44,48.44,0,0,0,8.3-6.08,48.48,48.48,0,0,0,6.08-8.3c3.16-5,6.43-10.14,11.74-13.21s11.29-3.29,17.15-3.55A49.65,49.65,0,0,0,95.47,24.9a47.24,47.24,0,0,0,9.18-4.05c5.27-2.76,10.73-5.62,17-5.62s11.74,2.86,17,5.62a47.23,47.23,0,0,0,9.18,4.05,49.65,49.65,0,0,0,10.38,1.16c5.86,0.26,11.92.53,17.15,3.55s8.58,8.22,11.74,13.21a48.5,48.5,0,0,0,6.08,8.3,48.48,48.48,0,0,0,8.3,6.08c5,3.16,10.14,6.43,13.21,11.74s3.29,11.29,3.55,17.15a49.65,49.65,0,0,0,1.16,10.38,47.23,47.23,0,0,0,4.05,9.18c2.76,5.27,5.62,10.73,5.62,17s-2.86,11.74-5.62,17a47.25,47.25,0,0,0-4.05,9.18,49.66,49.66,0,0,0-1.16,10.38c-0.26,5.86-.53,11.92-3.55,17.15s-8.22,8.58-13.21,11.74a48.46,48.46,0,0,0-8.3,6.08,48.48,48.48,0,0,0-6.08,8.3c-3.16,5-6.43,10.14-11.74,13.21s-11.29,3.29-17.15,3.55a49.65,49.65,0,0,0-10.38,1.16,47.23,47.23,0,0,0-9.18,4.05C133.41,227.25,128,230.1,121.67,230.1Z"/>
    <path class="cls-2" d="M121.67,18.88c9,0,16.94,7.33,25.26,9.55,8.6,2.3,19.12,0,26.65,4.34s10.87,14.73,17.07,20.93,16.51,9.43,20.93,17.07,2,18,4.34,26.65c2.22,8.31,9.55,16.24,9.55,25.25s-7.33,16.94-9.55,25.26c-2.3,8.6,0,19.12-4.34,26.65s-14.73,10.87-20.93,17.07-9.43,16.51-17.07,20.93-18,2-26.65,4.34c-8.31,2.22-16.24,9.55-25.26,9.55s-16.94-7.33-25.26-9.55c-8.6-2.3-19.12,0-26.65-4.34s-10.87-14.73-17.07-20.93-16.51-9.43-20.93-17.07-2-18-4.34-26.65c-2.22-8.31-9.55-16.24-9.55-25.26s7.33-16.94,9.55-25.26c2.3-8.6,0-19.12,4.34-26.65S46.49,59.89,52.69,53.69s9.43-16.51,17.07-20.93,18-2,26.65-4.34c8.31-2.22,16.24-9.55,25.25-9.55m0-7.29c-7.18,0-13.3,3.21-18.7,6a44.88,44.88,0,0,1-8.43,3.76,47.22,47.22,0,0,1-9.6,1c-6,.27-12.81.57-18.81,4s-9.75,9.3-13,14.41a46.06,46.06,0,0,1-5.58,7.67,46.06,46.06,0,0,1-7.67,5.58C34.76,57.36,29,61,25.46,67.11s-3.77,12.81-4,18.81a47.22,47.22,0,0,1-1,9.6A44.88,44.88,0,0,1,16.62,104c-2.83,5.4-6,11.52-6,18.71s3.21,13.3,6,18.7a44.88,44.88,0,0,1,3.76,8.43,47.22,47.22,0,0,1,1,9.6c0.27,6,.57,12.81,4,18.81s9.3,9.75,14.41,13a46.06,46.06,0,0,1,7.67,5.58,46.06,46.06,0,0,1,5.58,7.67c3.24,5.1,6.91,10.89,13,14.41s12.81,3.77,18.81,4a47.22,47.22,0,0,1,9.6,1,44.88,44.88,0,0,1,8.43,3.76c5.4,2.83,11.52,6,18.71,6s13.3-3.21,18.7-6A44.88,44.88,0,0,1,148.8,224a47.22,47.22,0,0,1,9.6-1c6-.27,12.81-0.57,18.81-4s9.75-9.3,13-14.41a46.06,46.06,0,0,1,5.58-7.67,46.06,46.06,0,0,1,7.67-5.58c5.1-3.24,10.89-6.91,14.41-13s3.77-12.81,4-18.81a47.22,47.22,0,0,1,1-9.6,44.88,44.88,0,0,1,3.76-8.43c2.83-5.4,6-11.52,6-18.71s-3.21-13.3-6-18.7A44.88,44.88,0,0,1,223,95.53a47.22,47.22,0,0,1-1-9.6c-0.27-6-.57-12.81-4-18.81s-9.3-9.75-14.41-13a46.06,46.06,0,0,1-7.67-5.58,46.06,46.06,0,0,1-5.58-7.67c-3.24-5.1-6.91-10.89-13-14.41s-12.81-3.77-18.81-4a47.22,47.22,0,0,1-9.6-1,44.88,44.88,0,0,1-8.43-3.76c-5.4-2.83-11.52-6-18.71-6h0Z"/>
  </g>
  <g>
    <path class="cls-2" d="M121.25,60A61.75,61.75,0,1,1,59.5,121.75,61.75,61.75,0,0,1,121.25,60m0-29A90.75,90.75,0,1,0,212,121.75,90.85,90.85,0,0,0,121.25,31h0Z"/>
    <g>
      <path class="cls-2" d="M89.8,135.25h7.62c4.82,0,7.18,2.67,7.18,7.58v15.51c0,4.91-2.37,7.58-7.18,7.58H89.8V135.25Zm4.82,4.38v21.9h2.72c1.53,0,2.45-.79,2.45-3V142.61c0-2.19-.92-3-2.45-3H94.62Z"/>
      <path class="cls-2" d="M123.22,165.91h-4.86l-0.83-5.56h-5.91l-0.83,5.56h-4.42l4.91-30.67h7.05Zm-11-9.73h4.64l-2.28-15.51H114.5Z"/>
      <path class="cls-2" d="M127.82,155.75l-6.09-20.5h5l3.64,14h0.09l3.64-14h4.6l-6.09,20.5v10.16h-4.82V155.75Z"/>
      <path class="cls-2" d="M146.83,134.9c4.69,0,7.1,2.8,7.1,7.71v1h-4.56V142.3c0-2.19-.88-3-2.41-3s-2.41.83-2.41,3,1,3.9,4.12,6.66c4,3.55,5.3,6.09,5.3,9.59,0,4.91-2.45,7.71-7.18,7.71s-7.18-2.8-7.18-7.71v-1.88h4.56v2.19c0,2.19,1,3,2.5,3s2.5-.79,2.5-3-1-3.9-4.12-6.66c-4-3.55-5.3-6.09-5.3-9.59C139.74,137.7,142.15,134.9,146.83,134.9Z"/>
    </g>
    <g>
      <path class="cls-2" d="M110.62,91c0-4.88-1.7-6.19-4.41-6.19s-4.41,1.47-4.41,5.34v3.48H93.74V90.71c0-8.67,4.34-13.63,12.7-13.63s12.7,5,12.7,13.63v1.39c0,5.81-1.86,9.37-6,11.07v0.15c4.26,1.86,6,5.81,6,11.3v4.26c0,8.67-4.34,13.63-12.7,13.63s-12.7-5-12.7-13.63v-4.49h8.05v5c0,3.87,1.7,5.34,4.41,5.34s4.41-1.32,4.41-6.12v-4.26c0-5-1.7-6.89-5.57-6.89h-2.86V99.77h3.33c3.17,0,5.11-1.39,5.11-5.73V91Z"/>
      <path class="cls-2" d="M124.17,90.71c0-8.67,4.57-13.63,12.93-13.63S150,82,150,90.71V118.9c0,8.67-4.57,13.63-12.93,13.63s-12.93-5-12.93-13.63V90.71Zm8.52,28.73c0,3.87,1.7,5.34,4.41,5.34s4.41-1.47,4.41-5.34V90.17c0-3.87-1.7-5.34-4.41-5.34s-4.41,1.47-4.41,5.34v29.27Z"/>
    </g>
    <text class="cls-3" transform="translate(58.16 105.79) rotate(-71.7) scale(1.27 1)">1</text>
    <text class="cls-3" transform="translate(62.03 94.61) rotate(-61.58) scale(1.27 1)">0</text>
    <text class="cls-3" transform="translate(67.8 84.28) rotate(-51.46) scale(1.27 1)">0</text>
    <text class="cls-3" transform="matrix(0.99, -0.8, 0.63, 0.78, 75.01, 75)">%</text>
    <text class="cls-3" transform="translate(89.17 64.46) rotate(-28.69) scale(1.27 1)"> </text>
    <text class="cls-3" transform="translate(94.14 61.45) rotate(-19.25) scale(1.27 1)">m</text>
    <text class="cls-3" transform="translate(108.79 56.73) rotate(-7.2) scale(1.27 1)">o</text>
    <text class="cls-3" transform="matrix(1.27, 0.08, -0.06, 1, 120.52, 55.38)">n</text>
    <text class="cls-3" transform="translate(133.09 56.37) rotate(13.98) scale(1.27 1)">e</text>
    <text class="cls-3" transform="translate(143.85 59.18) rotate(24.17) scale(1.27 1)">y</text>
    <text class="cls-3" transform="translate(154.61 64.38) rotate(32.01) scale(1.27 1)"> </text>
    <text class="cls-3" transform="translate(159.63 67.42) rotate(39.86) scale(1.27 1)">b</text>
    <text class="cls-3" transform="translate(168.79 75.27) rotate(50.25) scale(1.27 1)">a</text>
    <text class="cls-3" transform="translate(176.38 84.67) rotate(60.35) scale(1.27 1)">c</text>
    <text class="cls-3" transform="translate(182 94.8) rotate(70.56) scale(1.27 1)">k</text>
    <text class="cls-4" transform="translate(46.76 156.35) rotate(63) scale(1.4 1)">g</text>
    <text class="cls-4" transform="translate(58.06 175.22) rotate(46.23) scale(1.4 1)">u</text>
    <text class="cls-4" transform="matrix(1.21, 0.7, -0.5, 0.86, 74.33, 190.17)">a</text>
    <text class="cls-4" transform="translate(94.28 200.2) rotate(14.69) scale(1.4 1)">r</text>
    <text class="cls-4" transform="translate(115.87 204.59) rotate(-0.88) scale(1.4 1)">a</text>
    <text class="cls-4" transform="translate(138.14 203.16) rotate(-15.58) scale(1.4 1)">n</text>
    <text class="cls-4" transform="translate(159.72 195.64) rotate(-30.8) scale(1.4 1)">t</text>
    <text class="cls-4" transform="translate(176.82 183.98) rotate(-45.84) scale(1.4 1)">e</text>
    <text class="cls-4" transform="translate(190.59 167.83) rotate(-61.89) scale(1.4 1)">e</text>
  </g>
</svg>
