<svg id="Layer_1" data-name="Layer 1" xmlns="http://www.w3.org/2000/svg" viewBox="0 0 500 500"><defs><style>.cls-1{fill:#6da8d6;}.cls-2{fill:#98d9d5;}.cls-3{fill:#082947;}.cls-4{fill:#f2484b;}.cls-5{fill:#009bde;}</style></defs><title>1</title><path class="cls-1" d="M472.94,106.89V61.7H31.06v45.19H472.94ZM447.83,76.77H448a7.53,7.53,0,0,1,7.38,6.9c0,0.21,0,.41,0,0.62s0,0.37,0,.56a7.53,7.53,0,0,1-6.94,6.94l-0.56,0c-0.21,0-.42,0-0.62,0a7.53,7.53,0,0,1-6.88-6.88c0-.21,0-0.41,0-0.62s0-.38,0-0.56a7.53,7.53,0,0,1,7.5-7h0Zm-35.15,0h0.13a7.53,7.53,0,0,1,7.38,6.9c0,0.21,0,.41,0,0.62s0,0.37,0,.56a7.53,7.53,0,0,1-6.94,6.94l-0.56,0c-0.21,0-.42,0-0.62,0a7.53,7.53,0,0,1-6.88-6.88c0-.21,0-0.41,0-0.62s0-.38,0-0.56a7.53,7.53,0,0,1,7.5-7h0Zm-35.15,0h0.13a7.53,7.53,0,0,1,7.37,6.9c0,0.21,0,.41,0,0.62s0,0.37,0,.56a7.53,7.53,0,0,1-6.94,6.94l-0.56,0c-0.21,0-.42,0-0.62,0A7.53,7.53,0,0,1,370,84.92c0-.21,0-0.41,0-0.62s0-.38,0-0.56a7.53,7.53,0,0,1,7.5-7h0Zm0,0"/><path class="cls-2" d="M31.06,122.06V438.4H472.94V122.06H31.06ZM457.87,415.8"/><path class="cls-3" d="M480.47,46.64H23.53A7.53,7.53,0,0,0,16,54.17V445.83a7.53,7.53,0,0,0,7.53,7.53H480.47a7.53,7.53,0,0,0,7.53-7.53V54.17a7.53,7.53,0,0,0-7.53-7.53h0ZM472.94,61.7v45.19H31.06V61.7H472.94ZM31.06,438.3V122H472.94V438.3H31.06Zm0,0"/><path class="cls-3" d="M405.18,84.92a7.53,7.53,0,0,0,6.88,6.88l0.62,0,0.56,0a7.53,7.53,0,0,0,6.94-6.94c0-.18,0-0.37,0-0.56s0-.42,0-0.62a7.53,7.53,0,0,0-7.37-6.9h-0.13a7.53,7.53,0,0,0-7.5,7c0,0.19,0,.37,0,0.56s0,0.42,0,.62h0Zm0,0"/><path class="cls-3" d="M440.33,84.92a7.53,7.53,0,0,0,6.88,6.88l0.62,0,0.56,0a7.53,7.53,0,0,0,6.94-6.94c0-.18,0-0.37,0-0.56s0-.42,0-0.62a7.53,7.53,0,0,0-7.38-6.9h-0.13a7.53,7.53,0,0,0-7.5,7c0,0.19,0,.37,0,0.56s0,0.42,0,.62h0Zm0,0"/><path class="cls-3" d="M370,84.92a7.53,7.53,0,0,0,6.88,6.88l0.62,0,0.56,0A7.53,7.53,0,0,0,385,84.86c0-.18,0-0.37,0-0.56s0-.42,0-0.62a7.53,7.53,0,0,0-7.37-6.9h-0.13a7.53,7.53,0,0,0-7.5,7c0,0.19,0,.37,0,0.56s0,0.42,0,.62h0Zm0,0"/><path class="cls-4" d="M241,259a11.95,11.95,0,0,1,16.86,0l22.8,22.81a4.21,4.21,0,0,0,6,0L309.37,259a4.21,4.21,0,0,0,0-6l-22.81-22.8a52.59,52.59,0,0,0-74.38,0l-68.42,68.43a52.58,52.58,0,0,0,0,74.38l22.81,22.8a52.58,52.58,0,0,0,74.38,0l38.56-38.56a4.21,4.21,0,0,0-3-7.19h-0.28c-1.36.09-2.73,0.14-4.09,0.14A60.36,60.36,0,0,1,241.7,342a4.21,4.21,0,0,0-5.1.66l-24.41,24.41a11.93,11.93,0,0,1-16.86,0l-22.8-22.8a11.91,11.91,0,0,1,0-16.86Zm0,0"/><path class="cls-5" d="M377.8,184.61L355,161.8a52.59,52.59,0,0,0-74.37,0l-38.56,38.58a4.21,4.21,0,0,0,3,7.19h0.29c1.37-.09,2.75-0.14,4.12-0.14a60,60,0,0,1,30.4,8.23,4.2,4.2,0,0,0,5.11-.65l24.43-24.43a11.94,11.94,0,0,1,16.86,0L349,213.37a11.94,11.94,0,0,1,0,16.86l-68.42,68.42a11.93,11.93,0,0,1-16.86,0L241,275.85a4.21,4.21,0,0,0-6,0l-22.8,22.8a4.21,4.21,0,0,0,0,6L235,327.42a52.58,52.58,0,0,0,74.38,0L377.8,259a52.59,52.59,0,0,0,0-74.39h0Zm0,0"/></svg>