<svg id="Layer_1" data-name="Layer 1" xmlns="http://www.w3.org/2000/svg" viewBox="0 0 500 500"><defs><style>.cls-1{fill:#082947;}.cls-2{fill:#bababa;}.cls-3,.cls-5{fill:#51c4cb;}.cls-4{fill:#fdfcf9;}.cls-5{stroke:#082947;stroke-miterlimit:10;stroke-width:5.66px;}.cls-6{fill:#2fb24b;}.cls-7{fill:#ff5f00;}.cls-8{fill:#009490;}</style></defs><title>11</title><path class="cls-1" d="M357.47,14.21H147.21a32,32,0,0,0-31.85,31.85V453.94a32,32,0,0,0,31.85,31.85H357.47a32,32,0,0,0,31.85-31.85V46.05a32,32,0,0,0-31.85-31.85h0Zm-138.75,23H286a3.85,3.85,0,1,1,0,7.7H218.73a3.85,3.85,0,1,1,0-7.7h0Zm33.62,432.72a15.92,15.92,0,1,1,15.92-15.93,15.89,15.89,0,0,1-15.92,15.93h0Zm114.8-43H137.53V64.73H367.14V426.85Zm0,0"/><rect class="cls-2" x="158.68" y="138.59" width="194.28" height="8.02"/><rect class="cls-2" x="158.68" y="124.44" width="194.28" height="8.02"/><rect class="cls-2" x="158.68" y="110.29" width="194.28" height="8.02"/><rect class="cls-2" x="158.68" y="96.15" width="194.28" height="8.02"/><rect class="cls-2" x="158.68" y="82" width="194.28" height="8.02"/><path class="cls-3" d="M254.57,308a13,13,0,0,1-13-13V175.83a13,13,0,0,1,13-13H291.2L306,145a0.6,0.6,0,0,1,.93,0l15,17.88H446.43a13,13,0,0,1,13,13V295a13,13,0,0,1-13,13H254.57Z"/><path class="cls-1" d="M306.51,148.81L319,163.65l1.7,2H446.43a10.18,10.18,0,0,1,10.17,10.17V295a10.18,10.18,0,0,1-10.17,10.17H254.57A10.18,10.18,0,0,1,244.4,295V175.83a10.18,10.18,0,0,1,10.17-10.17h38l1.7-2,12.29-14.81m0-6.91a3.42,3.42,0,0,0-2.64,1.24l-14,16.86h-35.3a15.82,15.82,0,0,0-15.82,15.82V295a15.82,15.82,0,0,0,15.82,15.82H446.43A15.82,15.82,0,0,0,462.26,295V175.83A15.82,15.82,0,0,0,446.43,160H323.29l-14.16-16.87a3.42,3.42,0,0,0-2.63-1.23h0Z"/><rect class="cls-4" x="324.01" y="190.9" width="112.23" height="12.26" rx="4.33" ry="4.33"/><rect class="cls-2" x="158.68" y="326.74" width="194.28" height="8.02"/><rect class="cls-2" x="158.68" y="339.11" width="194.28" height="8.02"/><rect class="cls-2" x="158.68" y="351.49" width="194.28" height="8.02"/><rect class="cls-2" x="158.68" y="363.87" width="194.28" height="8.02"/><rect class="cls-2" x="158.68" y="376.25" width="194.28" height="8.02"/><path class="cls-5" d="M208.81,345.69H196.66l-10.13-12.07a2.46,2.46,0,0,0-3.77,0l-10,12.06H54.61A11.32,11.32,0,0,0,43.29,357v14.5a11.32,11.32,0,0,0,11.32,11.32h154.2a11.32,11.32,0,0,0,11.32-11.32V357A11.32,11.32,0,0,0,208.81,345.69Z"/><rect class="cls-4" x="83.52" y="358.54" width="120.72" height="12.26" rx="4.33" ry="4.33"/><rect class="cls-4" x="324.01" y="210.12" width="112.23" height="12.26" rx="4.33" ry="4.33"/><rect class="cls-4" x="324.01" y="229.34" width="112.23" height="12.26" rx="4.33" ry="4.33"/><path class="cls-4" d="M294.69,183a3.69,3.69,0,0,0-5.21.42l-12.14,14.24-6.07-5.22a3.7,3.7,0,1,0-4.81,5.61l8.88,7.63a3.71,3.71,0,0,0,2.41.89H278a3.73,3.73,0,0,0,2.52-1.29l14.56-17.06a3.7,3.7,0,0,0-.42-5.21h0Zm0,0"/><path class="cls-6" d="M167.52,171.41l49.3-30a2.23,2.23,0,0,1,3.29,2.6L201.5,199.27a2.23,2.23,0,0,1-2.13,1.54l-0.7-.12a2.3,2.3,0,0,1-1.43-1.43l-5.15-15.94-12.9,16.56a4.87,4.87,0,0,1-7.7-6l12.66-16.27-15.77-2.11a2.24,2.24,0,0,1-1.89-1.77,2.2,2.2,0,0,1,1-2.35h0Zm0,0"/><path class="cls-6" d="M323.35,351.94l-36.77-22.36a1.66,1.66,0,0,0-2.45,1.94L298,372.72a1.67,1.67,0,0,0,1.59,1.15l0.52-.09a1.71,1.71,0,0,0,1.07-1.07L305,360.82l9.62,12.35a3.63,3.63,0,0,0,5.74-4.46l-9.44-12.13L322.7,355a1.67,1.67,0,0,0,1.41-1.32,1.64,1.64,0,0,0-.76-1.75h0Zm0,0"/><rect class="cls-7" x="275.91" y="249.07" width="159.86" height="40.32"/><circle class="cls-8" cx="67.55" cy="363.87" r="11.2"/></svg>