<svg id="Layer_1" data-name="Layer 1" xmlns="http://www.w3.org/2000/svg" xmlns:xlink="http://www.w3.org/1999/xlink" viewBox="0 0 500 500"><defs><style>.cls-1{fill:none;}.cls-2{fill:#fff;}.cls-3{clip-path:url(#clip-path);}.cls-4{fill:#c82127;}.cls-5{fill:#f69348;}.cls-6{fill:#082947;}.cls-7{fill:#71b64f;}</style><clipPath id="clip-path"><rect class="cls-1" x="96.37" y="95.12" width="315.51" height="348.48"/></clipPath></defs><title>12</title><path class="cls-2" d="M367.77,182.24H339.7l-51.34,51.34,0,0,0,0-26.85,26.85a10.86,10.86,0,0,1-15.35-15.35l17.57-17.56A27.12,27.12,0,1,0,280.73,256a10.86,10.86,0,0,1,21.56,2.54,48.92,48.92,0,1,1-22.53-47.1l23.34-23.34a80.87,80.87,0,1,0,26,33.76,10.85,10.85,0,1,1,20.08-8.25,103.29,103.29,0,1,1-30.6-41l5.73-5.73V138.82a10.82,10.82,0,0,1,.17-1.67,135.8,135.8,0,0,0-70.73-20c-74.83,0-135.7,60.87-135.7,135.7s60.87,135.7,135.7,135.7,135.7-60.87,135.7-135.7a135,135,0,0,0-10.6-52.67,10.84,10.84,0,0,1,5.41-14q-2.66-5.2-5.73-10.16l-3.13,3.12a10.85,10.85,0,0,1-7.68,3.18h0Zm0,0"/><path class="cls-2" d="M346.06,160.53h17.22l2.39-2.39q-3.44-4.06-7.17-7.87-4.8-4.91-10-9.34l-2.39,2.38v17.21Zm0,0"/><g class="cls-3"><path class="cls-4" d="M288.33,233.61l0,0-1.09,1.09a37.69,37.69,0,0,1,4,11.73,10.78,10.78,0,0,1,11.05,12.11,48.92,48.92,0,1,1-22.53-47.1l23.35-23.35a80.89,80.89,0,1,0,26,33.77A10.85,10.85,0,0,1,334.46,208a92.43,92.43,0,0,0-8.21-12.32l-37.9,37.9,0,0h0Zm0,0"/></g><path class="cls-5" d="M261.46,260.48a10.85,10.85,0,0,1-15.35-15.35l17.56-17.56A27.12,27.12,0,1,0,280.73,256a10.87,10.87,0,0,1,10.51-9.57,37.78,37.78,0,0,0-4-11.73Zm0,0"/><path class="cls-2" d="M371.07,144a10.85,10.85,0,0,1-8.51-8.51l-1.45-7.25-15,15v17.21h17.22l15-15Zm0,0"/><path class="cls-2" d="M367.77,182.24H339.7l-51.34,51.34,0,0,0,0-26.85,26.85a10.86,10.86,0,0,1-15.35-15.35l17.57-17.56A27.12,27.12,0,1,0,280.73,256a10.86,10.86,0,0,1,21.56,2.54,48.92,48.92,0,1,1-22.53-47.1l23.34-23.34a80.87,80.87,0,1,0,26,33.76,10.85,10.85,0,1,1,20.08-8.25,103.29,103.29,0,1,1-30.6-41l5.73-5.73V138.82a10.82,10.82,0,0,1,.17-1.67,135.8,135.8,0,0,0-70.73-20c-74.83,0-135.7,60.87-135.7,135.7s60.87,135.7,135.7,135.7,135.7-60.87,135.7-135.7a135,135,0,0,0-10.6-52.67,10.84,10.84,0,0,1,5.41-14q-2.66-5.2-5.73-10.16l-3.13,3.12a10.85,10.85,0,0,1-7.68,3.18h0Zm0,0"/><path class="cls-2" d="M346.06,160.53h17.22l2.39-2.39q-3.44-4.06-7.17-7.87-4.8-4.91-10-9.34l-2.39,2.38v17.21Zm0,0"/><g class="cls-3"><path class="cls-4" d="M288.33,233.61l0,0-1.09,1.09a37.69,37.69,0,0,1,4,11.73,10.78,10.78,0,0,1,11.05,12.11,48.92,48.92,0,1,1-22.53-47.1l23.35-23.35a80.89,80.89,0,1,0,26,33.77A10.85,10.85,0,0,1,334.46,208a92.43,92.43,0,0,0-8.21-12.32l-37.9,37.9,0,0h0Zm0,0"/></g><path class="cls-5" d="M261.46,260.48a10.85,10.85,0,0,1-15.35-15.35l17.56-17.56A27.12,27.12,0,1,0,280.73,256a10.87,10.87,0,0,1,10.51-9.57,37.78,37.78,0,0,0-4-11.73Zm0,0"/><path class="cls-2" d="M371.07,144a10.85,10.85,0,0,1-8.51-8.51l-1.45-7.25-15,15v17.21h17.22l15-15Zm0,0"/><path class="cls-1" d="M283.26,407.43l-2.74.5Z"/><path class="cls-1" d="M287.21,406.62l-1.78.38Z"/><path class="cls-1" d="M269,409.49q-2.29.22-4.59,0.38Q266.7,409.71,269,409.49Z"/><path class="cls-1" d="M264.05,409.89q-2.44.16-4.9,0.24Q261.61,410,264.05,409.89Z"/><path class="cls-1" d="M273.83,408.94c-1.46.19-2.93,0.36-4.4,0.51Q271.63,409.22,273.83,408.94Z"/><path class="cls-1" d="M292.49,405.37l-1.07.27Z"/><path class="cls-1" d="M325.94,392.64q-1.65.85-3.31,1.67Q324.29,393.49,325.94,392.64Z"/><path class="cls-1" d="M330.25,390.32q-1.55.86-3.12,1.69Q328.7,391.18,330.25,390.32Z"/><path class="cls-1" d="M320.56,395.29l-1.47.68Z"/><path class="cls-1" d="M301.68,402.73l-0.43.14Z"/><path class="cls-1" d="M311,399.4l-0.56.22Z"/><path class="cls-1" d="M278.51,408.26q-1.7.27-3.41,0.51Q276.81,408.53,278.51,408.26Z"/><path class="cls-1" d="M378.32,145.48L371.07,144a10.85,10.85,0,0,1-8.51-8.51l-1.45-7.25-15,15v17.21h17.22Z"/><path class="cls-1" d="M241.22,409.7l-0.82-.07Z"/><path class="cls-1" d="M247.86,410.1c-1.09,0-2.17-.1-3.25-0.16Q246.24,410,247.86,410.1Z"/><path class="cls-1" d="M249.28,410.15q4.74,0.14,9.48,0-2.48.08-5,.08C252.28,410.22,250.78,410.19,249.28,410.15Z"/><path class="cls-6" d="M264.4,409.86l-0.34,0Z"/><path class="cls-6" d="M310.45,399.62q-4.34,1.68-8.76,3.1Q306.12,401.3,310.45,399.62Z"/><path class="cls-6" d="M319.09,396q-4,1.83-8.08,3.43Q315.11,397.8,319.09,396Z"/><path class="cls-6" d="M327.14,392l-1.2.63Z"/><path class="cls-6" d="M348.83,378.18A157.4,157.4,0,0,0,398.9,191.7a10.86,10.86,0,0,0-20,8.43,134.89,134.89,0,0,1,10.6,52.67c0,74.83-60.88,135.7-135.7,135.7s-135.7-60.87-135.7-135.7S179,117.1,253.79,117.1a135.79,135.79,0,0,1,70.73,20,11.25,11.25,0,0,0-.16,1.67v28.07l-5.73,5.73a102.87,102.87,0,1,0,30.6,41,10.85,10.85,0,1,0-20.08,8.25,81.88,81.88,0,1,1-26-33.77l-23.35,23.35a48.83,48.83,0,1,0,22.53,47.1A10.86,10.86,0,1,0,280.73,256a27.24,27.24,0,1,1-17.06-28.47l-17.57,17.57a10.85,10.85,0,1,0,15.35,15.35l26.85-26.85,0,0,0,0,51.34-51.35h28.07a10.86,10.86,0,0,0,7.67-3.18L408,146.49a10.86,10.86,0,0,0-5.55-18.32l-20-4-4-20a10.85,10.85,0,0,0-18.32-5.55l-21.68,21.68a157.56,157.56,0,0,0-84.63-24.86C167,95.39,96.37,166,96.37,252.81a157.21,157.21,0,0,0,61.44,124.64,159.17,159.17,0,0,0,82.59,32.19l0.82,0.07q1.7,0.14,3.4.24c1.08,0.06,2.16.12,3.25,0.16l1.42,0c1.5,0,3,.07,4.5.07q2.5,0,5-.08h0.4q2.46-.08,4.9-0.24l0.34,0q2.3-.15,4.59-0.38l0.44,0c1.47-.15,2.94-0.32,4.4-0.51l1.27-.17q1.71-.23,3.41-0.51l2-.34,2.74-.5,2.17-.43,1.78-.38q2.11-.46,4.21-1l1.07-.27q4.41-1.13,8.77-2.51l0.43-.14q4.42-1.42,8.76-3.1l0.56-.22q4.08-1.6,8.08-3.43l1.47-.68,2.07-1q1.67-.81,3.31-1.67l1.2-.63q1.57-.83,3.12-1.69a161.34,161.34,0,0,0,18.6-12.1Zm-2.77-234.87,15-15,1.45,7.25a10.85,10.85,0,0,0,8.51,8.51l7.25,1.45-15,15H346.06V143.31Z"/><path class="cls-6" d="M322.63,394.3l-2.07,1Z"/><path class="cls-6" d="M301.26,402.86q-4.35,1.38-8.77,2.51Q296.93,404.24,301.26,402.86Z"/><path class="cls-6" d="M249.28,410.15l-1.42,0Z"/><path class="cls-6" d="M259.16,410.13h0Z"/><path class="cls-6" d="M275.1,408.77l-1.27.17Z"/><path class="cls-6" d="M269.43,409.44l-0.44,0Z"/><path class="cls-6" d="M280.52,407.93l-2,.34Z"/><path class="cls-6" d="M291.42,405.64q-2.1.52-4.21,1Q289.32,406.15,291.42,405.64Z"/><path class="cls-6" d="M285.43,407l-2.17.43Z"/><path class="cls-6" d="M244.61,409.94q-1.7-.1-3.4-0.24C242.35,409.79,243.48,409.87,244.61,409.94Z"/><path class="cls-7" d="M479.35,200.1A231.38,231.38,0,0,0,403.18,76.52l-15.73,25.66a201.76,201.76,0,0,1,63,104.82c26,108.82-41.43,218.48-150.25,244.46a201.72,201.72,0,0,1-117.9-7.29l10.41-17-64.25,1.51,27.88,57.91,10.21-16.67a231.31,231.31,0,0,0,140.56,10.46C431.85,450.59,509.12,324.86,479.35,200.1Z"/><path class="cls-7" d="M372.51,77.61L344.63,19.7,334.47,36.28a231.27,231.27,0,0,0-135.39-8.44C74.32,57.62-3,183.34,26.82,308.1a231.35,231.35,0,0,0,74,121.76l15.76-25.72A201.74,201.74,0,0,1,55.73,301.2C29.76,192.38,97.16,82.72,206,56.75a201.68,201.68,0,0,1,112.66,5.41l-10.38,17Z"/></svg>