<svg id="Layer_1" data-name="Layer 1" xmlns="http://www.w3.org/2000/svg" viewBox="0 0 500 500"><defs><style>.cls-1{fill:#6da8d6;}.cls-2{fill:#98d9d5;}.cls-3{fill:#082947;}.cls-4{fill:#ff5f00;}.cls-5{fill:#2ab24b;}.cls-6{fill:#c82127;}.cls-7{fill:none;stroke:#276092;stroke-linecap:round;stroke-miterlimit:10;stroke-width:13.52px;}</style></defs><title>13</title><path class="cls-1" d="M466.39,110.48V66.43H35.61v44.06H466.39ZM441.92,81.11H442a7.34,7.34,0,0,1,7.19,6.73c0,0.2,0,.4,0,0.61s0,0.36,0,.54a7.34,7.34,0,0,1-6.77,6.77l-0.54,0c-0.21,0-.41,0-0.61,0a7.34,7.34,0,0,1-6.71-6.71c0-.2,0-0.4,0-0.6s0-.37,0-0.55a7.34,7.34,0,0,1,7.31-6.79h0Zm-34.27,0h0.12A7.34,7.34,0,0,1,415,87.85c0,0.2,0,.4,0,0.61s0,0.36,0,.54a7.34,7.34,0,0,1-6.77,6.77l-0.54,0c-0.21,0-.41,0-0.61,0a7.34,7.34,0,0,1-6.71-6.71c0-.2,0-0.4,0-0.6s0-.37,0-0.55a7.34,7.34,0,0,1,7.31-6.79h0Zm-34.27,0h0.12a7.34,7.34,0,0,1,7.19,6.73c0,0.2,0,.4,0,0.61s0,0.36,0,.54a7.34,7.34,0,0,1-6.77,6.77l-0.54,0c-0.21,0-.41,0-0.61,0a7.34,7.34,0,0,1-6.71-6.71c0-.2,0-0.4,0-0.6s0-.37,0-0.55a7.34,7.34,0,0,1,7.31-6.79h0Zm0,0"/><path class="cls-2" d="M35.61,125.27v308.4H466.39V125.27H35.61Zm416.1,286.37"/><path class="cls-3" d="M473.74,51.74H28.26a7.35,7.35,0,0,0-7.34,7.34V440.92a7.35,7.35,0,0,0,7.34,7.34H473.74a7.35,7.35,0,0,0,7.34-7.34V59.08a7.35,7.35,0,0,0-7.34-7.34h0Zm-7.34,14.69v44.06H35.61V66.43H466.39ZM35.61,433.57V125.17H466.39v308.4H35.61Zm0,0"/><path class="cls-3" d="M400.33,89.06A7.34,7.34,0,0,0,407,95.77l0.61,0,0.54,0A7.34,7.34,0,0,0,415,89c0-.18,0-0.36,0-0.54s0-.41,0-0.61a7.34,7.34,0,0,0-7.19-6.73h-0.12a7.34,7.34,0,0,0-7.31,6.8c0,0.18,0,.36,0,0.54s0,0.41,0,.61h0Zm0,0"/><path class="cls-3" d="M434.6,89.06a7.34,7.34,0,0,0,6.71,6.71l0.61,0,0.54,0A7.34,7.34,0,0,0,449.23,89c0-.18,0-0.36,0-0.54s0-.41,0-0.61A7.34,7.34,0,0,0,442,81.12h-0.12a7.34,7.34,0,0,0-7.31,6.8c0,0.18,0,.36,0,0.54s0,0.41,0,.61h0Zm0,0"/><path class="cls-3" d="M366.07,89.06a7.34,7.34,0,0,0,6.71,6.71l0.61,0,0.54,0A7.34,7.34,0,0,0,380.7,89c0-.18,0-0.36,0-0.54s0-.41,0-0.61a7.34,7.34,0,0,0-7.19-6.73h-0.12a7.34,7.34,0,0,0-7.31,6.8c0,0.18,0,.36,0,0.54s0,0.41,0,.61h0Zm0,0"/><rect class="cls-4" x="157.32" y="229.76" width="60.02" height="160.04"/><rect class="cls-5" x="217.34" y="169.8" width="59.97" height="220.02"/><rect class="cls-6" x="277.3" y="269.82" width="60.02" height="120"/><line class="cls-7" x1="99.88" y1="396.28" x2="397.31" y2="396.28"/></svg>