<svg id="Layer_2" data-name="Layer 2" xmlns="http://www.w3.org/2000/svg" viewBox="0 0 500 500"><defs><style>.cls-1{fill:#082947;}.cls-2{fill:#9bbdaa;}.cls-3{fill:#ff5f00;}.cls-4{fill:#2ab34b;}.cls-5{fill:#1f9bde;}</style></defs><title>15</title><path class="cls-1" d="M341.88,398.5H245.71v-37a4.19,4.19,0,0,0-4.18-4.2H230.72a4.49,4.49,0,0,0-4.53,4.2v37H130.73a5.53,5.53,0,0,0-5.38,5.2v10.78c0,2.74,2.64,4.63,5.38,4.63H341.88a4.43,4.43,0,0,0,4.66-4.63V403.7C346.55,401,344.63,398.5,341.88,398.5Z"/><path class="cls-2" d="M314.69,292.95A92,92,0,0,1,406,210.18c3.09,0,6.23.16,9.33,0.47a91.39,91.39,0,0,1,44.5,16.82V83H23.42V344.29h301A91.29,91.29,0,0,1,314.69,292.95Z"/><rect class="cls-3" x="226.67" y="134.52" width="34.88" height="133.79"/><path class="cls-1" d="M268.51,294.13H66a5.88,5.88,0,1,0,0,11.76H268.51a5.88,5.88,0,0,0,0-11.76h0Zm0,0"/><path class="cls-1" d="M192.77,220.55H145a6.44,6.44,0,0,0-6.44,6.44v47.77a6.44,6.44,0,0,0,6.44,6.44h47.77a6.44,6.44,0,0,0,6.44-6.44V227a6.44,6.44,0,0,0-6.44-6.44h0Zm-6.45,47.77H151.44V233.44h34.88v34.88Zm0,0"/><path class="cls-1" d="M69.87,281.21h47.77a6.45,6.45,0,0,0,6.45-6.44V189.71a6.45,6.45,0,0,0-6.45-6.45H69.87a6.45,6.45,0,0,0-6.45,6.45v85.06a6.44,6.44,0,0,0,6.45,6.44h0Zm6.44-85.06h34.88v72.17H76.31V196.15Zm0,0"/><path class="cls-1" d="M220.23,281.21H268a6.45,6.45,0,0,0,6.45-6.44V128.08a6.45,6.45,0,0,0-6.45-6.45H220.23a6.45,6.45,0,0,0-6.45,6.45V274.76a6.45,6.45,0,0,0,6.45,6.44h0Zm6.45-146.68h34.88V268.32H226.67V134.52Zm0,0"/><path class="cls-1" d="M317.16,325.27H33.11v-235H439.89V216.58a90.75,90.75,0,0,1,20.34,11.15V81.15a10.66,10.66,0,0,0-10.66-10.66H23.43A10.66,10.66,0,0,0,12.77,81.15V334a10.66,10.66,0,0,0,10.66,10.66H324.66A90.88,90.88,0,0,1,317.16,325.27Z"/><path class="cls-4" d="M457.51,364.91a81.1,81.1,0,1,0-59.43,17.91,81.19,81.19,0,0,0,59.43-17.91h0ZM336.91,295.18a69.61,69.61,0,1,1,15.37,51,69.16,69.16,0,0,1-15.37-51h0Zm0,0"/><path class="cls-5" d="M424.61,315a12.94,12.94,0,0,0-7.91,2.7l-22.63-13.58a12.26,12.26,0,0,0,0-4.26l22.63-13.58A13,13,0,1,0,411.6,276a13.05,13.05,0,0,0,.19,2.13l-22.64,13.58a13,13,0,1,0,0,20.62l22.64,13.58A13,13,0,1,0,424.61,315h0Zm0,0"/></svg>