<svg id="Layer_1" data-name="Layer 1" xmlns="http://www.w3.org/2000/svg" viewBox="0 0 500 500"><defs><style>.cls-1,.cls-2{fill:#9bbdaa;}.cls-1{opacity:0.5;}.cls-3{fill:#082947;}.cls-4{fill:#ff5f00;}.cls-5{fill:#2fb44b;}</style></defs><title>16</title><polygon class="cls-1" points="416.58 109.17 415.1 472.25 78.91 472.25 78.91 108.04 150.67 108.04 150.67 143.43 349.73 143.43 349.73 109.03 416.58 109.17"/><rect class="cls-2" x="150.43" y="71.92" width="196.11" height="72.99"/><rect class="cls-2" x="216.78" y="26.21" width="62.67" height="32.44"/><path class="cls-3" d="M363.51,91.74V52h-59.6V12.29H196V52.06H136.39V91.83H66.92V487.71H433.08v-396H363.51Zm0,68.14V120.2h41V459.15H95.38V120.2h41v39.67H363.51ZM275.44,40.76V52h-51V40.76h51ZM164.85,131.51v-51H335v51H164.85Z"/><rect class="cls-4" x="126.43" y="213.82" width="28.46" height="28.46"/><rect class="cls-4" x="126.43" y="295.28" width="28.46" height="28.46"/><rect class="cls-4" x="126.43" y="377.69" width="28.46" height="28.47"/><rect class="cls-5" x="166.2" y="213.82" width="207.28" height="28.46"/><rect class="cls-5" x="166.2" y="295.28" width="207.28" height="28.46"/><rect class="cls-5" x="166.2" y="377.69" width="207.28" height="28.47"/></svg>