<svg id="Layer_3" data-name="Layer 3" xmlns="http://www.w3.org/2000/svg" viewBox="0 0 500 500"><defs><style>.cls-1{opacity:0.7;}.cls-2{fill:#8ae2d1;}.cls-3{fill:#a4c6d3;}.cls-4{fill:#00a887;}.cls-5{fill:#082947;}.cls-6{fill:#ff5f00;}</style></defs><title>4</title><g class="cls-1"><polygon class="cls-2" points="472.46 431.43 405.41 295.28 86.87 295.28 20.8 433.62 472.46 431.43"/></g><path class="cls-3" d="M247.06,72.87a107.14,107.14,0,0,0-107,107c0,50.82,81.44,156.66,107,188.65,25.59-32,107-137.76,107-188.65A107.15,107.15,0,0,0,247.06,72.87Zm-0.36,148.85A41.77,41.77,0,1,1,288.46,180,41.77,41.77,0,0,1,246.69,221.73Z"/><path class="cls-4" d="M247.15,119.23A60.8,60.8,0,1,0,307.92,180,60.84,60.84,0,0,0,247.15,119.23Zm0,100.91A40.11,40.11,0,1,1,287.24,180,40.16,40.16,0,0,1,247.15,220.14Z"/><path class="cls-5" d="M247.15,55.46A124.68,124.68,0,0,0,122.61,180c0,66.41,111.89,200.43,116.61,206.05a10.2,10.2,0,0,0,7.93,3.7,10.47,10.47,0,0,0,7.95-3.66c4.76-5.67,116.59-139.62,116.59-206.1A124.68,124.68,0,0,0,247.15,55.46ZM351,180c0,49.38-79,152-103.86,183.07C222.33,332,143.3,229.32,143.3,180A103.86,103.86,0,0,1,351,180Z"/><path class="cls-5" d="M484.23,431.9L410.75,282.84a8.76,8.76,0,0,0-7.86-4.89h-57c-3.46,5.88-7.05,11.73-10.71,17.5h62.31L462.32,427H31.93l64.4-131.59h63q-5.72-9-10.75-17.5H90.88A8.76,8.76,0,0,0,83,282.86l-73,149.06a8.76,8.76,0,0,0,7.87,12.61H476.38A8.76,8.76,0,0,0,484.23,431.9Z"/><path class="cls-6" d="M307.51,345.36c-1.76-.57-3.58-1.12-5.45-1.64-3.42,4.66-6.74,9.11-9.91,13.28,20.41,4.68,33.77,12.43,33.77,21.2,0,14.29-35.42,25.88-79.1,25.88s-79.1-11.59-79.1-25.88c0-8.88,13.66-16.71,34.47-21.37-3.16-4.18-6.48-8.64-9.91-13.32-2.12.58-4.18,1.19-6.16,1.84-27.87,9.12-33.72,22.9-33.72,32.85s5.85,23.73,33.72,32.85c16.44,5.38,38,8.34,60.7,8.34s44.26-3,60.7-8.34c27.87-9.12,33.72-22.9,33.72-32.85S335.38,354.48,307.51,345.36Z"/></svg>