<svg id="Layer_1" data-name="Layer 1" xmlns="http://www.w3.org/2000/svg" viewBox="0 0 400 400"><defs><style>.cls-1{fill:#99d7d4;}.cls-2{fill:#082947;}.cls-3{fill:#c4e0f4;}.cls-4{fill:#71b750;}.cls-5{fill:#fff;opacity:0.5;}.cls-6{fill:#ff5f00;}</style></defs><title>5</title><path class="cls-1" d="M263.88,155.59l-17.32,20.07-5-5.63a60,60,0,0,0-9.06-8.28l-5.92-4.38,19.57-21.24L157.59,47.58,31.87,168.89,226,363,350.59,240.57l-85.89-85.89Z"/><path class="cls-2" d="M315.1,187.88h0L273.32,146.1a57.29,57.29,0,0,0-6.61,6.32l-2.82,3.17-1.62,1.87,41.65,41.67,0,0,38.79,38.79L226.52,354.12,43.19,170.84,159.46,54.62l41,41h0l43.2,43.23,3.65-4a57.17,57.17,0,0,0,6.24-8.55L211.6,84.39l0,0L161.18,34A22.83,22.83,0,0,0,129,34L22.58,140.35a22.87,22.87,0,0,0,0,32.28L229,379.08a22.82,22.82,0,0,0,32.22,0L367.7,272.63a22.94,22.94,0,0,0,0-32.22ZM70.34,115.8l34.08-34.07a2.72,2.72,0,0,1,3.87,0,2.82,2.82,0,0,1,0,3.93l-34,34a2.71,2.71,0,0,1-3.93,0A2.74,2.74,0,0,1,70.34,115.8Zm236.07,202a11.41,11.41,0,1,1,0-16.13A11.4,11.4,0,0,1,306.41,317.78Z"/><path class="cls-3" d="M197.24,272.18a62.68,62.68,0,1,1,62.68-62.68A62.75,62.75,0,0,1,197.24,272.18Z"/><path class="cls-2" d="M197.24,150.12a59.37,59.37,0,1,1-59.37,59.37,59.37,59.37,0,0,1,59.37-59.37m0-6.62a66,66,0,1,0,66,66,66.07,66.07,0,0,0-66-66h0Z"/><path class="cls-4" d="M140.77,191.13a5.53,5.53,0,0,0,1-1c6.53-7.58,10.53,9.69,16,5.26s7.26,0.11,7.26.11,1.58,11.05,5.58,7.47c6.94-6.21,9.89-2.74,12.84-9.9s-7.79-16.42-6.53-21.05,8-7.58.63-10.11c-4.86-1.67-10.91-1.41-14.47-1A59.5,59.5,0,0,0,140.77,191.13Z"/><path class="cls-4" d="M204.73,254.17c2.11-4.84-5.26-1.16-7.47-5.42S186,244.81,179,250c-8.36,6.16-10.08,3.17-9.42,1,1.1-3.63,2.74-8.47-.63-8.68s-19.11,3.63-8.05-6.21c14.77-13.15,8.21-15.37,2.1-16s-9.47-2.32-13.47-9.48c-3.17-5.67-9.25-4.6-11.63-3.91,0,0.93-.07,1.87-0.07,2.82a59.42,59.42,0,0,0,72.78,57.85C211.19,261.65,203,258,204.73,254.17Z"/><path class="cls-4" d="M250.76,183.76a18.14,18.14,0,0,1-3.83-2c-3-2.23-11.13-1.48-18.92-10.39s-10,6.31-15.58,9.27-7.68,8.95-14.22,8.16c-4.38-.53-3.64,4.37-4,6-0.89,4.59-3.49,6.89.26,8.26,5.14,1.88,14.21,4.63,10.62,11.21-4.45,8.13-11.87-2.35-19.29,5.56S185,231,192.27,231.27s9.15,3.34,7.67,7.91,7.42,16.2,14.47,4.33-1.61-21.39,4.2-26.46,9,2.1,9.77,4.95,3.57,3.67,6.24-5.61c1.58-5.47,3.38-1.37,5.26-5.64,4.74-10.75,10.08-11.53,15.56-13A58.83,58.83,0,0,0,250.76,183.76Z"/><path class="cls-4" d="M193.47,163s8.32-2.53,11.47-2.42,0.1,2,3.79,1.9,9.68,3.05,2.53,5.37-4.63,5.07-10.42,3.47C196.62,170.17,194.63,164.27,193.47,163Z"/><ellipse class="cls-5" cx="201.17" cy="191.52" rx="38.2" ry="43.78" transform="translate(-17.8 362.4) rotate(-81.56)"/><path class="cls-6" d="M385.13,171.48l-2.8-47.15-15.27,17.17a75.79,75.79,0,0,0-90.4-19.92,75.69,75.69,0,0,0-30.29-87.48l15.27-17.17-47.16,2.69,2.7,47.27,20.77-23.34a63.6,63.6,0,0,1,30,50.19,62.78,62.78,0,0,1-15.77,45.57l-15.79,17.14a66.54,66.54,0,0,1,10.06,9.19L261.71,148l0,0a62.78,62.78,0,0,1,43.54-21.08,63.6,63.6,0,0,1,53.34,24l-20.77,23.34Z"/><path class="cls-4" d="M225,240.28s-1.22-2.54,4.53-5.58c1.27-.67,6.74-1.58,9.9-5.89s5.47,4.74,6.32,5.05,3.16,0.11.95,2.63-7.79,6.32-13.27,11.47S228.31,243.86,225,240.28Z"/></svg>