<svg id="Layer_1" data-name="Layer 1" xmlns="http://www.w3.org/2000/svg" viewBox="0 0 500 500"><defs><style>.cls-1{fill:#bdd7d6;}.cls-2{fill:#082947;}.cls-3{fill:none;}.cls-4{fill:#c82027;}.cls-5{fill:#2ab34b;}.cls-6{fill:#ababab;}.cls-7{font-size:70.39px;fill:#fff;font-family:Impact;}</style></defs><title>6</title><rect class="cls-1" x="33.1" y="84.81" width="428.23" height="293.31"/><path class="cls-2" d="M458.61,69.16l-0.72,0H41c-13.51.93-23.6,11.67-25.2,24.72V368.38a26.93,26.93,0,0,0,3.68,13.72c5.27,9.28,13,14,23.81,14H194v38H165.37a12.61,12.61,0,0,0,0,25.23H334.21a12.61,12.61,0,1,0,0-25.23H305.58v-38H456.3c10.79,0,18.64-4.7,23.84-14A27.71,27.71,0,0,0,484,368.38V93.89c-1.59-13.06-12.36-23.79-25.41-24.72h0Zm0,27v272.2c0,1.6-.69,2.29-2.32,2.29h-413c-1.6,0-2.29-.69-2.29-2.29V93.89H458.61v2.29Zm0,0"/><rect class="cls-3" x="15.76" y="69.3" width="469.2" height="390.17"/><rect class="cls-4" x="257.11" y="109.22" width="178.23" height="72.74"/><rect class="cls-5" x="64.31" y="109.22" width="178.72" height="72.74"/><rect class="cls-6" x="64.31" y="194.28" width="178.72" height="72.74"/><rect class="cls-6" x="257.11" y="194.28" width="178.23" height="72.74"/><rect class="cls-6" x="64.31" y="279.34" width="178.72" height="72.74"/><rect class="cls-6" x="257.11" y="279.34" width="178.23" height="72.74"/><text class="cls-7" transform="translate(135.6 173.58)">A</text><text class="cls-7" transform="translate(326.45 173.58)">B</text></svg>