<svg xmlns="http://www.w3.org/2000/svg" xmlns:xlink="http://www.w3.org/1999/xlink" viewBox="0 0 500 500"><defs><style>.cls-1,.cls-5{fill:#98d5d3;}.cls-1,.cls-8{stroke:#082947;stroke-miterlimit:10;stroke-width:7.59px;}.cls-2{fill:#c82127;}.cls-3{fill:#fff;}.cls-4{isolation:isolate;}.cls-6{clip-path:url(#clip-path);}.cls-7{fill:#082947;}.cls-8{fill:none;}.cls-9{clip-path:url(#clip-path-2);}.cls-10{clip-path:url(#clip-path-3);}.cls-11{fill:#8a8a8a;opacity:0.5;}.cls-12{clip-path:url(#clip-path-4);}.cls-13{opacity:0.2;mix-blend-mode:multiply;}.cls-14{fill:#1e1727;}.cls-15{fill:#c30d13;}.cls-16{fill:#2ab24b;}</style><clipPath id="clip-path"><circle id="_Clipping_Path_" data-name="&lt;Clipping Path&gt;" class="cls-1" cx="316.72" cy="205.95" r="45.29"/></clipPath><clipPath id="clip-path-2"><circle id="_Clipping_Path_2" data-name="&lt;Clipping Path&gt;" class="cls-1" cx="183.83" cy="205.95" r="35.92"/></clipPath><clipPath id="clip-path-3"><path id="_Clipping_Path_3" data-name="&lt;Clipping Path&gt;" class="cls-2" d="M140.81,328.13a12.21,12.21,0,0,1-10.2-18.92l5.36-8.14a8,8,0,0,1,6.7-3.61h145.5a8,8,0,0,1,7.32,4.74l3.86,8.59A12.21,12.21,0,0,1,288.22,328l-147.4.13h0Z"/></clipPath><clipPath id="clip-path-4"><path id="_Clipping_Path_4" data-name="&lt;Clipping Path&gt;" class="cls-3" d="M135.71,293.67L140.89,307l0.66,1.43a5.71,5.71,0,0,0,8.58,2.19l7.84-5.82,1-.73,0.29,0.57,3.45,6.75a4.17,4.17,0,0,0,7.09.56l4.73-6.5,5.63,6.51a6.25,6.25,0,0,0,9,.44L196,306l5.55,5.88a6.64,6.64,0,0,0,10.57-1.23l4.17-7.21,8.13,9.72a6.75,6.75,0,0,0,9.94.45l9.21-9.19,8.73,8.91a5.66,5.66,0,0,0,8.81-.91l6.77-10.57,10,9.65a7.42,7.42,0,0,0,10.92-.65l6.78-8.34,9.41,9.17a7.2,7.2,0,0,0,10,0l7.36-7.14,6.48,7.75a6.28,6.28,0,0,0,9.56.09l5.75-6.62,4.79,5.95a5.13,5.13,0,0,0,8.05-.07l3.22-4.15,12.14-15Z"/></clipPath></defs><title>7</title><g class="cls-4"><g id="Layer_2" data-name="Layer 2"><path class="cls-5" d="M252,386.22a644.54,644.54,0,0,1-142.8-16,25.75,25.75,0,0,1-19.64-24.57v-210a35.51,35.51,0,0,1,35.36-35.41H379a35.52,35.52,0,0,1,35.41,35.42v210a25.74,25.74,0,0,1-19.62,24.56A644.58,644.58,0,0,1,252,386.22Z"/><circle id="_Clipping_Path_5" data-name="&lt;Clipping Path&gt;" class="cls-5" cx="316.72" cy="205.95" r="45.29"/><g class="cls-6"><path class="cls-7" d="M261.09,218.25Q320.27,207,370.86,187.73l-31.5-36.92-65.47,4.92Z"/></g><circle id="_Clipping_Path_6" data-name="&lt;Clipping Path&gt;" class="cls-8" cx="316.72" cy="205.95" r="45.29"/><ellipse class="cls-7" cx="317.58" cy="205.45" rx="15.78" ry="11.84" transform="translate(-41.88 87.75) rotate(-14.77)"/><circle id="_Clipping_Path_7" data-name="&lt;Clipping Path&gt;" class="cls-5" cx="183.83" cy="205.95" r="35.92"/><g class="cls-9"><path class="cls-7" d="M227.95,215.71a517.36,517.36,0,0,1-87.06-24.2l25-29.28,51.92,3.9Z"/></g><circle id="_Clipping_Path_8" data-name="&lt;Clipping Path&gt;" class="cls-8" cx="183.83" cy="205.95" r="35.92"/><ellipse class="cls-7" cx="183.15" cy="205.56" rx="9.39" ry="12.52" transform="translate(-62.3 330.25) rotate(-75.23)"/><path class="cls-2" d="M296.31,296.36a21.65,21.65,0,0,1-.75-2.93H142.67a12,12,0,0,0-10.06,5.42L127.26,307a16.23,16.23,0,0,0,13.57,25.16l167.51-.1Z"/><path id="_Clipping_Path_9" data-name="&lt;Clipping Path&gt;" class="cls-2" d="M140.81,328.13a12.21,12.21,0,0,1-10.2-18.92l5.36-8.14a8,8,0,0,1,6.7-3.61h145.5a8,8,0,0,1,7.32,4.74l3.86,8.59A12.21,12.21,0,0,1,288.22,328l-147.4.13h0Z"/><g class="cls-10"><path class="cls-11" d="M158,304.82l1.27-.16L159,304.1Z"/><path id="_Clipping_Path_10" data-name="&lt;Clipping Path&gt;" class="cls-3" d="M135.71,293.67L140.89,307l0.66,1.43a5.71,5.71,0,0,0,8.58,2.19l7.84-5.82,1-.73,0.29,0.57,3.45,6.75a4.17,4.17,0,0,0,7.09.56l4.73-6.5,5.63,6.51a6.25,6.25,0,0,0,9,.44L196,306l5.55,5.88a6.64,6.64,0,0,0,10.57-1.23l4.17-7.21,8.13,9.72a6.75,6.75,0,0,0,9.94.45l9.21-9.19,8.73,8.91a5.66,5.66,0,0,0,8.81-.91l6.77-10.57,10,9.65a7.42,7.42,0,0,0,10.92-.65l6.78-8.34,9.41,9.17a7.2,7.2,0,0,0,10,0l7.36-7.14,6.48,7.75a6.28,6.28,0,0,0,9.56.09l5.75-6.62,4.79,5.95a5.13,5.13,0,0,0,8.05-.07l3.22-4.15,12.14-15Z"/><g class="cls-12"><g class="cls-13"><path class="cls-14" d="M139.93,314.47l-8-21.38c77.77-2.29,158.23-.77,239.44,1.11l-13.08,21C279.84,294.85,208.81,296.12,139.93,314.47Z"/></g></g></g><path class="cls-7" d="M437.42,161.47h22.94a29.17,29.17,0,0,1,29.17,29.17v61a29.17,29.17,0,0,1-29.17,29.17H437.42a0,0,0,0,1,0,0V161.47A0,0,0,0,1,437.42,161.47Z"/><path class="cls-7" d="M14.47,161.47H37.41a29.17,29.17,0,0,1,29.17,29.17v61a29.17,29.17,0,0,1-29.17,29.17H14.47a0,0,0,0,1,0,0V161.47a0,0,0,0,1,0,0Z" transform="translate(81.05 442.3) rotate(180)"/><path class="cls-7" d="M320,366.58a627.58,627.58,0,0,1-68,3.7,627.56,627.56,0,0,1-139.26-15.65,9.74,9.74,0,0,1-7.24-9v-210A19.52,19.52,0,0,1,125,116.17H379a19.52,19.52,0,0,1,19.48,19.48q0,88.79,0,177.57l31.87,19.38v-197A51.47,51.47,0,0,0,379.14,84.3H124.86a51.48,51.48,0,0,0-51.24,51.36v210a41.48,41.48,0,0,0,32,40.1A660.54,660.54,0,0,0,252,402.16a659.84,659.84,0,0,0,78.37-4.7Z"/><path class="cls-15" d="M296.31,296.36A22,22,0,0,1,298,278.68L67.36,48.9,48.08,68.25l258,257.08Z"/><path class="cls-16" d="M469.76,374.32L320.64,283.64a6.74,6.74,0,0,0-9.95,7.88L367,458.59a6.76,6.76,0,0,0,6.44,4.66l2.11-.35a7,7,0,0,0,4.33-4.33l15.58-48.2,39,50.08a14.74,14.74,0,0,0,23.29-18.08l-38.29-49.2,47.7-6.39a6.79,6.79,0,0,0,5.7-5.34,6.65,6.65,0,0,0-3.09-7.11h0Zm0,0"/><rect class="cls-15" x="240.37" y="-20.42" width="27.32" height="537.12" transform="translate(250.5 -106.95) rotate(45.1)"/></g></g></svg>