<svg id="Layer_1" data-name="Layer 1" xmlns="http://www.w3.org/2000/svg" viewBox="0 0 500 500"><defs><style>.cls-1{fill:#009bde;}.cls-2{fill:#c82027;}.cls-3{fill:#2ab34b;}.cls-4{fill:#082947;}</style></defs><title>8</title><path class="cls-1" d="M201.22,252.11a38.72,38.72,0,0,0,6.35,5.55c-3.17-14.27-2.39-28.55,1.59-42.84l-27-26.18c-13.49-13.49-12.69-36.51,2.39-50.77,14.27-14.29,37.28-15.08,50.77-2.39l41.24,41.26c13.49,13.49,12.7,36.49-2.39,50.77A37,37,0,0,1,258.34,237a21.78,21.78,0,0,0,6.35,18.25l9.53,9.53a69.3,69.3,0,0,0,22.21-15.08c27-27,27.75-69.81,2.37-96L257.55,112.5c-26.18-26.2-69-24.61-96,2.37s-27.75,69.81-2.37,96Zm0,0"/><path class="cls-2" d="M374.17,229.9l-41.24-41.24a40.29,40.29,0,0,0-6.35-5.57c3.17,14.28,2.37,28.57-1.59,42.85l27,27c13.47,13.51,12.69,36.51-2.39,50.77-14.29,14.29-37.28,15.08-50.77,2.39L257.55,264.8c-13.49-13.49-12.7-36.49,2.39-50.76a36.88,36.88,0,0,1,15.86-9.53,21.72,21.72,0,0,0-6.35-18.24l-10.31-11.1a69.05,69.05,0,0,0-22.22,15.06c-27,27-27.75,69.81-2.37,96l41.25,41.26c26.18,26.18,69,24.57,96-2.39s28.57-69,2.39-95.2h0Zm0,0"/><path class="cls-3" d="M193.28,265.6h-23.8v28.57H140.94V318h28.55v28.57h23.8V318h28.57v-23.8H193.28V265.6Zm0,0"/><path class="cls-4" d="M238.49,72.58a23,23,0,0,0,25.28,3A97.78,97.78,0,0,1,371.27,88.25a96.44,96.44,0,0,1,31.91,53.89l-11.09-6.82a10,10,0,0,0-14.33,12.85L411,218.28a10,10,0,0,0,16.69,2.24l50.82-59.13a10,10,0,0,0-10.37-16.19L451.22,150A143.81,143.81,0,0,0,243.13,34.17a23.22,23.22,0,0,0-4.64,38.41h0Zm0,0"/><path class="cls-4" d="M76.54,238.73a23,23,0,0,1,3,25.28A97.78,97.78,0,0,0,92.21,371.52a96.44,96.44,0,0,0,53.89,31.91l-6.82-11.09A10,10,0,0,1,152.13,378l70.11,33.25a10,10,0,0,1,2.24,16.69l-59.13,50.82a10,10,0,0,1-16.19-10.37L154,451.46A143.81,143.81,0,0,1,38.13,243.37a23.22,23.22,0,0,1,38.41-4.64h0Zm0,0"/></svg>