<svg id="Layer_1" data-name="Layer 1" xmlns="http://www.w3.org/2000/svg" viewBox="0 0 163 137"><defs><style>.cls-1{fill:#b1d9e8;}.cls-2{fill:#38baec;}.cls-3{fill:#83cff3;}</style></defs><title>experts</title><path class="cls-1" d="M99,24a30,30,0,0,1,14,22l10,2A24,24,0,1,0,99,24h0Z"/><path class="cls-2" d="M83,73A24,24,0,1,0,59,49,24,24,0,0,0,83,73h0Z"/><path class="cls-2" d="M93,74H73a31,31,0,0,0-31,31v25h2a140,140,0,0,0,42,7c23,0,36-6,36-7h2V105A31,31,0,0,0,93,74h0Z"/><path class="cls-1" d="M133,50H113a29,29,0,0,1-9,21,36,36,0,0,1,26,35v8c20-1,31-6,32-7h2V80a31,31,0,0,0-31-31h0Z"/><path class="cls-3" d="M41,48a24,24,0,0,0,13-4A30,30,0,0,1,65,25h0A24,24,0,1,0,41,48h0Z"/><path class="cls-3" d="M62,70a30,30,0,0,1-9-20H31A31,31,0,0,0,0,80v25H2a144,144,0,0,0,35,6v-8A36,36,0,0,1,62,70h0Z"/><path d="M62,70"/></svg>