<svg id="Layer_1" data-name="Layer 1" xmlns="http://www.w3.org/2000/svg" viewBox="0 0 62.75 62.75"><defs><style>.cls-1 { fill: #ebebeb; } .cls-2 { fill: #9d9d9d; }</style></defs><title>q</title><rect class="cls-1" width="62.75" height="62.75"/><g><path class="cls-2" d="M48.08,10.5H14.67a4.19,4.19,0,0,0-4.17,4.17v33.4a4.19,4.19,0,0,0,4.17,4.18h33.4a4.19,4.19,0,0,0,4.17-4.18V14.68a4.19,4.19,0,0,0-4.17-4.17h0Zm0.84,37.58a0.85,0.85,0,0,1-.84.84H14.67a0.85,0.85,0,0,1-.84-0.84V14.68a0.85,0.85,0,0,1,.84-0.84h33.4a0.85,0.85,0,0,1,.84.84v33.4Zm0,0"/><path class="cls-2" d="M31.15,39.16a2.75,2.75,0,0,0-2,.79,2.63,2.63,0,0,0-.81,2,2.56,2.56,0,0,0,.83,2,2.88,2.88,0,0,0,2,.72,2.82,2.82,0,0,0,1.92-.73,2.57,2.57,0,0,0,.82-2,2.7,2.7,0,0,0-2.74-2.74h0Zm0,0"/><path class="cls-2" d="M36.3,17.83a10.66,10.66,0,0,0-4.7-1,10.36,10.36,0,0,0-5,1.17,8.62,8.62,0,0,0-3.27,3,6.65,6.65,0,0,0-1.12,3.54,2.26,2.26,0,0,0,.71,1.58,2.36,2.36,0,0,0,1.73.72A2.43,2.43,0,0,0,27,24.74a8.18,8.18,0,0,1,1.62-3,3.89,3.89,0,0,1,3-1,4,4,0,0,1,2.82,1,3.28,3.28,0,0,1,1.09,2.49,2.79,2.79,0,0,1-.36,1.39,5.34,5.34,0,0,1-.88,1.17c-0.35.35-.92,0.87-1.7,1.56a27.78,27.78,0,0,0-2.13,2A6.49,6.49,0,0,0,28.7,35a2.44,2.44,0,0,0,.65,1.85,2.23,2.23,0,0,0,1.61.63,2,2,0,0,0,2.18-1.92c0.13-.6.24-1,0.3-1.26a4.17,4.17,0,0,1,.29-0.72,4.29,4.29,0,0,1,.56-0.79,13.41,13.41,0,0,1,1-1q2.26-2,3.13-2.87a8,8,0,0,0,1.51-2,5.74,5.74,0,0,0,.64-2.74,6.52,6.52,0,0,0-1.11-3.67,7.58,7.58,0,0,0-3.15-2.67h0Zm0,0"/></g></svg>