<svg id="Layer_1" data-name="Layer 1" xmlns="http://www.w3.org/2000/svg" viewBox="0 0 63 63"><defs><style>.cls-1{fill:#ebebeb;}</style></defs><title>q</title><rect class="cls-1" width="63" height="62.75"/><path d="M48,11H15a4,4,0,0,0-4,4V48a4,4,0,0,0,4,4H48a4,4,0,0,0,4-4V15a4,4,0,0,0-4-4h0Zm1,38H14V15H49V48Zm0,0"/><path d="M31,39H29v4h4V40H31Zm0,0"/><path d="M36,18H27l-3,3a7,7,0,0,0-1,4v2h2a2,2,0,0,0,2-2l2-3h6v2H34l-2,2-2,2v2a7,7,0,0,0,0,3v2h2a2,2,0,0,0,2-2h2l3-3,2-2a6,6,0,0,0,1-3,7,7,0,0,0-1-4l-3-3h0Zm0,0"/></svg>