<svg id="Layer_1" data-name="Layer 1" xmlns="http://www.w3.org/2000/svg" viewBox="0 0 936 510"><defs><style>.cls-1{fill:#28abe2;}.cls-2{opacity:0.5;}.cls-3{fill:#fff;}.cls-4{font-size:72px;fill:#231f20;font-family:Oriya Sangam MN;}.cls-5{fill:#00aeef;}</style></defs><title>tri</title><rect class="cls-1" x="518" y="250" width="418" height="260"/><path class="cls-3" d="M668,96V83H638V17h66V96c0,25-7,44-21,55s-22,12-37,12V128c8,0,23,0,23-32h0ZM559,128v35c15,0,27-4,37-12s21-30,21-55V17H551V83h31V96c0,32-15,32-23,32h0Zm0,0" transform="translate(49 269)"/><text class="cls-4" transform="translate(0 60)">“gdgdf”</text><path class="cls-5" d="M0,227V110H244Z" transform="translate(49 269)"/></svg>